<?xml version="1.0" encoding="utf-8"?>
<!-- Generator: Adobe Illustrator 19.2.1, SVG Export Plug-In . SVG Version: 6.00 Build 0)  -->
<svg version="1.1" id="Layer_1" xmlns="http://www.w3.org/2000/svg" xmlns:xlink="http://www.w3.org/1999/xlink" x="0px" y="0px"
	 viewBox="0 0 223.7 253.7" style="enable-background:new 0 0 223.7 253.7;" xml:space="preserve">
<g id="_x36_PUNCF.tif">
	<g>
		<g>
			<path d="M34.2,225.2c43,0,85.6,0,128.6,0c0,9.6,0,18.8,0,28.5c-54.1,0-108.3,0-162.8,0C0,169.2,0,84.8,0,0c53.1,0,106.4,0,160,0
				c0,9.2,0,18.6,0,28.6c-41.7,0-83.6,0-125.8,0c0,25.3,0,50,0,75.3c40.3,0,80.3,0,120.6,0c0,9.8,0,19.1,0,28.9
				c-40.2,0-80.3,0-120.6,0C34.2,163.6,34.2,194,34.2,225.2z"/>
			<path d="M191.6,34.1c-18.6,0.2-31.8,13.1-32,32c-0.2,19.4,14.9,32.1,32.4,32.1c17.7,0,31.7-14.4,31.7-32.3
				C224.1,50.8,211.7,33.8,191.6,34.1z M198.9,80.9c-0.1,0.1-0.3,0-0.5,0c-9.4,0.8-13.2,1.1-14.7-2.1c-1.1-2.1-1.1-5.9-1.1-12.4
				c0-0.8-0.1-1.7,0-2.5c0.4-3.8-0.1-10.5,1.4-11c4.7-1.5,10.1-0.7,15.2-0.7c0.6,0,1.1,1.3,1.7,1.9c0,0,0,0,0,0
				c0,0.1,0.1,0.1,0.1,0.2c-0.7,0.6-1.3,1.5-2.1,1.6c-1.8,0.2-3.7,0.1-5.5,0.1c-6,0-6.4,0-5.8,5.9c0,0.4,0.1,0.8,0.1,1.3
				c3,0,5.8-0.2,8.6,0.1c1.3,0.1,2.6,1.2,3.8,1.8c0,0-0.1,0.1-0.1,0.1c0.1,0,0.2,0.1,0.2,0.1c-1.4,0.8-2.7,1.9-4.1,2.4
				c-1.1,0.4-2.3,0.2-3.5,0.1c-3.4-0.3-5.6,0.1-5.5,4.6c0,1.3,0.3,2.2,0.6,2.8c0.9,1.3,2.6,1.3,4.7,1.2c2.2,0,4.4-0.2,6.5,0.2
				c0.9,0.2,1.6,1.6,2.4,2.4c0,0,0,0,0,0c0,0.1,0.1,0.1,0.1,0.2C200.6,79.8,199.7,80.3,198.9,80.9z"/>
			<path d="M78.2,147.8c-17.9-0.1-31.8,13.8-32.2,31.7C45.7,195.8,58.1,212,78,212c17.1-0.1,31.8-11.8,32-32
				C110.2,159,93.5,147.8,78.2,147.8z M84.6,194.7c-4,0.3-8,0.4-11.9,0c-1.1-0.1-2.8-1.5-3.2-2.6c-0.1-0.2-0.2-0.4-0.2-0.6
				c-0.3-7.4-0.3-14.9,0-22.4c0-1.2,1.9-3.2,3.1-3.3c3.9-0.4,7.9-0.2,11.9,0c0.9,0.1,1.8,1.4,2.7,2.1c0,0,0,0-0.1,0.1
				c0.1,0,0.1,0.1,0.2,0.1c-0.9,0.6-1.9,1.7-2.8,1.8c-3.1,0-6.3-0.1-10-0.1c0,2.6,0,4.6,0,7.2c3.3,0,6.3-0.1,9.4,0.1
				c1,0.1,1.9,1.2,2.9,1.8c0,0-0.1,0-0.1,0.1c0.1,0,0.1,0.1,0.2,0.1c-1,0.6-2,1.6-3,1.7c-2.9,0.2-5.9,0.1-9.2,0.1c0,3.1,0,5.8,0,9.2
				c3.3,0,6.5-0.2,9.7,0.1c1.2,0.1,2.4,1.4,3.6,2.2c0,0-0.1,0-0.1,0.1c0.1,0,0.1,0.1,0.2,0.1C86.8,193.3,85.7,194.6,84.6,194.7z"/>
			<path d="M191.7,148c-18.4,0.3-32.3,13.5-31.9,32c0.3,20.4,14.2,31.8,32,31.9c19.3,0.1,31.9-15.4,31.8-32.1
				C223.6,162.1,209.2,147.6,191.7,148z M203.7,194.7c-2,0.2-3.6-0.2-5.1-1c-3.1-1.7-5.1-5.2-7.9-7.7c-1-0.9-2.1-1.7-3.4-2.2
				c0,2.8,0.3,5.4-0.1,8c-0.2,1.1-1.6,1.9-2.5,2.9c0,0-0.1-0.1-0.1-0.1c0,0,0,0,0,0c-0.7-0.9-2-1.9-2-2.8c-0.2-7.8-0.2-15.7,0-23.5
				c0-0.9,1.4-1.7,2.2-2.6c0,0,0.1,0.1,0.1,0.1c0,0,0,0,0,0c0.1,0.1,0.2,0.2,0.2,0.2c0.4,0.4,1,0.8,1.4,1.2c0.3,0.3,0.6,0.7,0.7,1.1
				c0.4,2.1,0.1,4.2,0.1,7.4c3-2.9,5.3-5.1,7.6-7.3c2.3-2.2,4.6-4.3,8.7-1.9c0,0,0,0,0,0c0,0,0.1,0,0.1,0.1c-1.3,1-2.5,2.1-3.7,3.1
				c-3.3,2.9-6.6,5.9-10.8,9.6c6.1,5.4,10.8,9.6,15.4,13.7c0,0,0,0,0,0c0,0,0.1,0.1,0.1,0.1C204.4,193.7,204,194.2,203.7,194.7z"/>
			<path d="M78.2,34.1c-19-0.3-32.4,15.4-32,31.9c0,17.9,14.1,32.2,31.8,32.1c17.6,0,31.6-14,31.8-31.7
				C110,48.9,97.1,34.4,78.2,34.1z M85.8,80.4c-1.2-0.4-2.4-1.5-4.4-3.6c-2.4-2.5-4.7-5.2-7-7.8c-0.4,0.2-0.9,0.4-1.2,0.6
				c0,2.5,0.3,5.1-0.1,7.6c-0.2,1.2-1.5,2.3-2.3,3.4c0,0,0,0,0-0.1c0,0,0,0-0.1,0.1c-0.7-1.1-2.1-2.1-2.1-3.2
				c-0.2-7.3-0.2-14.7,0-22c0-1.1,1.6-2.2,2.4-3.3c0,0,0,0,0,0.1c0,0,0,0,0.1-0.1c0.7,1.2,1.8,2.4,2.1,3.7c0.4,1.7,0.1,3.5,0.1,5.5
				c5.3-2.1,7.5-8.7,13.9-8.9c0.9,0,1.9,0.1,3.1,0.4c-4.8,4.5-8.8,8.3-14.1,13.2c5.6,4.5,10.6,8.5,16.3,13
				C88.9,80.3,87.3,81,85.8,80.4z"/>
		</g>
	</g>
</g>
</svg>
